<svg xmlns="http://www.w3.org/2000/svg" viewBox="18899 1153 80 80.094" width="80px" height="81px">
  <defs>
    <style>
      .cls-1 {
        fill: #ff3f3f;
      }
    </style>
  </defs>
  <g id="discount" transform="translate(18898.701 1153)">
    <g id="Group_92" data-name="Group 92" transform="translate(0.299)">
      <g id="Group_91" data-name="Group 91" transform="translate(0)">
        <path id="Path_278" data-name="Path 278" class="cls-1" d="M73.623,0H52.258A13.465,13.465,0,0,0,41.967,4.4a1.335,1.335,0,0,0,1.888,1.888,10.75,10.75,0,0,1,8.4-3.615H73.623a4.011,4.011,0,0,1,4.006,4.006V28.041a10.745,10.745,0,0,1-3.616,8.4L34.357,76.156a4.1,4.1,0,0,1-5.664,0L4.143,51.606a4,4,0,0,1,0-5.664L39.985,10.151c.55.14,1.1.28,1.674.434a101.461,101.461,0,0,1,12.915,4.3,8,8,0,1,0,7.03-4.2,1.335,1.335,0,0,0,0,2.67,5.353,5.353,0,1,1-4.593,2.624,17.156,17.156,0,0,1,4.33,2.636,6.441,6.441,0,0,1-1.192.2,1.336,1.336,0,0,0,.116,2.667c.039,0,.079,0,.119-.005.821-.073,3.32-.294,3.8-2.084C65.5,14.473,46.228,9.044,42.352,8a98.443,98.443,0,0,0-16.038-3.06c-5.425-.475-8.065.143-8.561,2-.239.891-.872,3.255,9.953,7.524a1.335,1.335,0,0,0,.981-2.484c-5.23-2.063-7.4-3.575-8.095-4.286,1.649-.483,7.28-.343,16.347,1.718L2.255,44.053a6.675,6.675,0,0,0,0,9.442L26.8,78.044a6.676,6.676,0,0,0,9.442,0L75.9,38.332a13.461,13.461,0,0,0,4.4-10.291V6.677A6.684,6.684,0,0,0,73.623,0Z" transform="translate(-0.299)"/>
        <path id="Path_279" data-name="Path 279" class="cls-1" d="M294.341,311.111a1.333,1.333,0,0,0-1.828.477l-15.305,26.106a4,4,0,0,1-5.413,1.5l-2.983-1.932a1.335,1.335,0,0,0-1.452,2.241l3.04,1.968a6.679,6.679,0,0,0,9.115-2.436l15.3-26.1A1.335,1.335,0,0,0,294.341,311.111Z" transform="translate(-225.057 -262.273)"/>
        <path id="Path_280" data-name="Path 280" class="cls-1" d="M204.348,240.269v18.694a1.335,1.335,0,0,0,2.67,0V240.269a1.335,1.335,0,0,0-2.67,0Z" transform="translate(-172.418 -201.546)"/>
        <path id="Path_281" data-name="Path 281" class="cls-1" d="M255.548,258.671A2.671,2.671,0,1,0,258.219,256,2.673,2.673,0,0,0,255.548,258.671Z" transform="translate(-215.607 -215.941)"/>
        <path id="Path_282" data-name="Path 282" class="cls-1" d="M136.081,309.871a2.671,2.671,0,1,0,2.671-2.671A2.673,2.673,0,0,0,136.081,309.871Z" transform="translate(-114.834 -259.129)"/>
      </g>
    </g>
  </g>
</svg>
