<svg xmlns="http://www.w3.org/2000/svg" viewBox="18110 869 69.332 80" width="70px" height="80px">
  <defs>
    <style>
      .cls-1 {
        fill: red;
      }
    </style>
  </defs>
  <g id="invoice" transform="translate(18075.865 869)">
    <g id="Group_81" data-name="Group 81" transform="translate(34.135)">
      <g id="Group_80" data-name="Group 80" transform="translate(0)">
        <path id="Path_218" data-name="Path 218" class="cls-1" d="M121.021,392.533h-.013a1.34,1.34,0,1,0,.013,0Z" transform="translate(-106.314 -331.2)"/>
        <path id="Path_219" data-name="Path 219" class="cls-1" d="M172.221,392.533h-.013a1.34,1.34,0,1,0,.013,0Z" transform="translate(-149.515 -331.2)"/>
        <path id="Path_220" data-name="Path 220" class="cls-1" d="M182.668,273.067H172a1.333,1.333,0,0,0,0,2.667h10.667a1.333,1.333,0,0,0,0-2.667Z" transform="translate(-149.335 -230.4)"/>
        <path id="Path_221" data-name="Path 221" class="cls-1" d="M177.335,324.267H172a1.333,1.333,0,1,0,0,2.667h5.333a1.333,1.333,0,0,0,0-2.667Z" transform="translate(-149.335 -273.6)"/>
        <path id="Path_222" data-name="Path 222" class="cls-1" d="M329.6,205.066a2.669,2.669,0,0,1-2.667-2.667,1.333,1.333,0,1,0-2.667,0,5.327,5.327,0,0,0,4,5.144v.189a1.333,1.333,0,0,0,2.667,0v-.189a5.322,5.322,0,0,0-1.333-10.477,2.667,2.667,0,1,1,2.667-2.667,1.333,1.333,0,1,0,2.667,0,5.327,5.327,0,0,0-4-5.144v-.189a1.333,1.333,0,0,0-2.667,0v.189a5.322,5.322,0,0,0,1.333,10.477,2.667,2.667,0,1,1,0,5.333Z" transform="translate(-278.935 -158.4)"/>
        <path id="Path_223" data-name="Path 223" class="cls-1" d="M325.821,392.533h-.013a1.34,1.34,0,1,0,.013,0Z" transform="translate(-279.115 -331.2)"/>
        <path id="Path_224" data-name="Path 224" class="cls-1" d="M428.221,395.2a1.333,1.333,0,0,0,0-2.667h-.013a1.333,1.333,0,1,0,.013,2.667Z" transform="translate(-365.515 -331.201)"/>
        <path id="Path_225" data-name="Path 225" class="cls-1" d="M377.021,392.533h-.013a1.34,1.34,0,1,0,.013,0Z" transform="translate(-322.315 -331.2)"/>
        <path id="Path_226" data-name="Path 226" class="cls-1" d="M342.668,88H348a1.333,1.333,0,1,0,0-2.667h-5.333a1.333,1.333,0,1,0,0,2.667Z" transform="translate(-293.335 -72.001)"/>
        <path id="Path_227" data-name="Path 227" class="cls-1" d="M223.421,392.533h-.013a1.34,1.34,0,1,0,.013,0Z" transform="translate(-192.715 -331.2)"/>
        <path id="Path_228" data-name="Path 228" class="cls-1" d="M120.8,275.734h2.667a1.333,1.333,0,1,0,0-2.667H120.8a1.333,1.333,0,1,0,0,2.667Z" transform="translate(-106.135 -230.4)"/>
        <path id="Path_229" data-name="Path 229" class="cls-1" d="M120.8,326.934h2.667a1.333,1.333,0,0,0,0-2.667H120.8a1.333,1.333,0,0,0,0,2.667Z" transform="translate(-106.135 -273.6)"/>
        <path id="Path_230" data-name="Path 230" class="cls-1" d="M102.135,0H35.468a1.333,1.333,0,0,0-1.333,1.333V78.666a1.333,1.333,0,0,0,2.276.943l7.057-7.057,7.057,7.057a1.332,1.332,0,0,0,1.885,0L56.8,75.218l4.391,4.391a1.332,1.332,0,0,0,1.885,0l4.391-4.391,1.724,1.724a1.332,1.332,0,0,0,1.885,0l4.391-4.391,4.391,4.391a1.332,1.332,0,0,0,1.885,0L84.8,73.885l3.057,3.057a1.332,1.332,0,0,0,1.885,0L96.8,69.885l4.391,4.391a.932.932,0,0,0,.084.077,0,0,0,0,0,0,0h0a1.334,1.334,0,0,0,.8.309c.049,0,.1,0,.151,0h0a1.33,1.33,0,0,0,.719-.273,1.288,1.288,0,0,0,.2-.185,1.332,1.332,0,0,0,.325-.869v-72A1.333,1.333,0,0,0,102.135,0ZM100.8,70.114l-3.057-3.057a1.332,1.332,0,0,0-1.885,0L88.8,74.114l-3.057-3.057a1.332,1.332,0,0,0-1.885,0L80.8,74.114l-4.391-4.391a1.332,1.332,0,0,0-1.885,0l-4.391,4.391L68.411,72.39a1.332,1.332,0,0,0-1.885,0l-4.391,4.391L57.744,72.39a1.333,1.333,0,0,0-1.885,0l-4.391,4.391-7.057-7.057a1.332,1.332,0,0,0-1.885,0L36.8,75.448V2.667h64V70.114Z" transform="translate(-34.135)"/>
        <path id="Path_231" data-name="Path 231" class="cls-1" d="M69.821,395.2a1.333,1.333,0,0,0,0-2.667h-.013a1.333,1.333,0,1,0,.013,2.667Z" transform="translate(-63.114 -331.201)"/>
        <path id="Path_232" data-name="Path 232" class="cls-1" d="M120.8,224.534h2.667a1.333,1.333,0,1,0,0-2.667H120.8a1.333,1.333,0,0,0,0,2.667Z" transform="translate(-106.135 -187.2)"/>
        <path id="Path_233" data-name="Path 233" class="cls-1" d="M274.621,395.2a1.333,1.333,0,1,0,0-2.667h-.013a1.333,1.333,0,1,0,.013,2.667Z" transform="translate(-235.915 -331.201)"/>
        <path id="Path_234" data-name="Path 234" class="cls-1" d="M172,173.334h8a1.333,1.333,0,1,0,0-2.667h-8a1.333,1.333,0,1,0,0,2.667Z" transform="translate(-149.335 -144)"/>
        <path id="Path_235" data-name="Path 235" class="cls-1" d="M120.8,173.334h2.667a1.333,1.333,0,1,0,0-2.667H120.8a1.333,1.333,0,0,0,0,2.667Z" transform="translate(-106.135 -144)"/>
        <path id="Path_236" data-name="Path 236" class="cls-1" d="M185.335,221.867H172a1.333,1.333,0,1,0,0,2.667h13.333a1.333,1.333,0,0,0,0-2.667Z" transform="translate(-149.335 -187.2)"/>
        <path id="Path_237" data-name="Path 237" class="cls-1" d="M120.8,88h21.333a1.333,1.333,0,1,0,0-2.667H120.8a1.333,1.333,0,0,0,0,2.667Z" transform="translate(-106.135 -72.001)"/>
      </g>
    </g>
  </g>
</svg>
