<svg xmlns="http://www.w3.org/2000/svg" viewBox="18517 1153 53.334 80" width="54px" height="80px">
  <defs>
    <style>
      .cls-1 {
        fill: red;
      }
    </style>
  </defs>
  <g id="placeholder" transform="translate(18431.667 1153)">
    <g id="Group_90" data-name="Group 90" transform="translate(85.333)">
      <g id="Group_89" data-name="Group 89">
        <path id="Path_275" data-name="Path 275" class="cls-1" d="M163.364,446.625a1.334,1.334,0,1,0-.317,2.648c5.46.657,7.572,1.749,8.073,2.231-.972,1.023-6.7,2.661-15.92,2.661s-14.948-1.639-15.92-2.661c.5-.479,2.6-1.565,8.019-2.224a1.333,1.333,0,1,0-.32-2.647c-6.931.841-10.445,2.479-10.445,4.865,0,5.184,16.756,5.333,18.667,5.333s18.667-.149,18.667-5.333C173.866,449.1,170.333,447.465,163.364,446.625Z" transform="translate(-128.533 -376.831)"/>
        <path id="Path_276" data-name="Path 276" class="cls-1" d="M184,85.333a13.333,13.333,0,1,0,13.333,13.333A13.348,13.348,0,0,0,184,85.333Zm0,24a10.667,10.667,0,1,1,10.667-10.667A10.679,10.679,0,0,1,184,109.333Z" transform="translate(-157.334 -72)"/>
        <path id="Path_277" data-name="Path 277" class="cls-1" d="M112,0A26.7,26.7,0,0,0,85.333,26.667c0,8.308,5.34,16.4,5.559,16.724l19.991,30.671a1.334,1.334,0,0,0,2.235,0L133.05,43.5c.229-.344,5.616-8.525,5.616-16.833A26.7,26.7,0,0,0,112,0Zm18.824,42.032L112,70.892,93.117,41.921C93.066,41.845,88,34.175,88,26.667a24,24,0,0,1,48,0C136,34.156,130.882,41.944,130.824,42.032Z" transform="translate(-85.333)"/>
      </g>
    </g>
  </g>
</svg>
