<svg xmlns="http://www.w3.org/2000/svg" viewBox="18504 863 80 80.001">
  <defs>
    <style>
      .cls-1 {
        fill: red;
      }
    </style>
  </defs>
  <g id="telemarketer" transform="translate(18503.997 863)">
    <g id="Group_84" data-name="Group 84" transform="translate(0.003)">
      <g id="Group_83" data-name="Group 83" transform="translate(0)">
        <path id="Path_238" data-name="Path 238" class="cls-1" d="M105.438,39.883c.972,2.531,4.188,10.691,6.521,14.191l.211.319c1.712,2.6,4.576,6.941,14.232,6.941s12.52-4.345,14.232-6.941l.211-.319c.04-.06.081-.131.121-.192h.013a6.633,6.633,0,0,0,5.145-10.86c.537-1.324.976-2.445,1.241-3.139A4.007,4.007,0,0,0,150.4,36V30.667a4.008,4.008,0,0,0-2.667-3.772V20c0-5.264-2.772-14.988-13.024-15.927a3.07,3.07,0,0,0-.461-1.511C132.941.445,129.26,0,126.4,0c-23.725,0-24,22.44-24,22.667A1.332,1.332,0,0,0,103.734,24h0a1.333,1.333,0,0,0,1.333-1.329c0-.817.3-20,21.333-20,3.771,0,5.281.816,5.579,1.3.043.068.156.251-.1.772a1.333,1.333,0,0,0,1.192,1.929c11.821,0,12,12.791,12,13.333v8a1.334,1.334,0,0,0,1.333,1.333,1.335,1.335,0,0,1,1.333,1.333V36a1.335,1.335,0,0,1-1.333,1.333,1.333,1.333,0,0,0-1.248.865c-.017.045-.733,1.947-1.744,4.408a1.316,1.316,0,0,0-.141.345,88.3,88.3,0,0,1-3.819,8.263h-5.285a4,4,0,1,0-.017,2.667h3.612c-1.6,2.255-4.18,4.785-11.357,4.785-8.219,0-10.408-3.319-12.005-5.743l-.219-.331c-2.551-3.825-6.488-14.289-6.527-14.395a1.336,1.336,0,0,0-1.249-.865A1.335,1.335,0,0,1,105.069,36V30.667a1.331,1.331,0,0,1,.379-.929A3.737,3.737,0,0,0,109.069,32a1.335,1.335,0,0,0,1.193-.737,34.484,34.484,0,0,0,2.731-9.941c4.2-.075,16.361-.588,21.771-3.964,1.227,4.736,5.165,8.721,5.363,8.919a1.333,1.333,0,1,0,1.885-1.885c-.049-.049-4.943-5-4.943-9.724a1.333,1.333,0,0,0-2.476-.687c-1.94,3.233-14.535,4.687-22.857,4.687A1.334,1.334,0,0,0,110.4,20a31.029,31.029,0,0,1-2.111,9.147A1.307,1.307,0,0,1,107.735,28a1.334,1.334,0,0,0-1.333-1.333,4,4,0,0,0-4,4V36A4.007,4.007,0,0,0,105.438,39.883Zm39.377,6.267a3.894,3.894,0,0,1-2.152,4.68C143.4,49.364,144.136,47.728,144.816,46.149Zm-13.128,6.607a1.317,1.317,0,0,1-1.285,1.1,1.333,1.333,0,1,1,0-2.667,1.316,1.316,0,0,1,1.291,1.125,1.252,1.252,0,0,0-.047.236A1.349,1.349,0,0,0,131.688,52.756Z" transform="translate(-86.402)"/>
        <path id="Path_239" data-name="Path 239" class="cls-1" d="M324.763,424.238l-1.361-5.431c-2-6.005-11.608-8.931-29.268-8.856a1.332,1.332,0,0,0-1.3,1.071L290.163,424.3a1.333,1.333,0,1,0,2.615.525l2.451-12.205c15.271.071,24.131,2.493,25.615,6.933l1.333,5.333a1.332,1.332,0,0,0,1.292,1.009,1.3,1.3,0,0,0,.325-.04A1.333,1.333,0,0,0,324.763,424.238Z" transform="translate(-244.803 -345.895)"/>
        <path id="Path_240" data-name="Path 240" class="cls-1" d="M234.4,409.6a3.99,3.99,0,0,0-1.333,7.755v6.912a1.333,1.333,0,1,0,2.667,0v-6.912A3.99,3.99,0,0,0,234.4,409.6Zm0,5.333a1.333,1.333,0,1,1,1.333-1.333A1.335,1.335,0,0,1,234.4,414.933Z" transform="translate(-194.403 -345.6)"/>
        <path id="Path_241" data-name="Path 241" class="cls-1" d="M274.4,204.8a1.333,1.333,0,1,0,0,2.667h1.333a1.333,1.333,0,1,0,2.667,0h1.333a1.333,1.333,0,1,0,0-2.667Z" transform="translate(-230.403 -172.8)"/>
        <path id="Path_242" data-name="Path 242" class="cls-1" d="M194.4,204.8H189.07a1.333,1.333,0,1,0,0,2.667H190.4a1.333,1.333,0,1,0,2.667,0H194.4a1.333,1.333,0,0,0,0-2.667Z" transform="translate(-158.404 -172.8)"/>
        <path id="Path_243" data-name="Path 243" class="cls-1" d="M31.978,410.672A1.335,1.335,0,0,0,30.67,409.6c-18.185,0-27.211,2.749-29.293,9.009L.043,423.943a1.333,1.333,0,0,0,.969,1.617,1.309,1.309,0,0,0,.325.04,1.332,1.332,0,0,0,1.292-1.009l1.305-5.235c1.553-4.664,9.947-6.984,25.643-7.085l2.452,12.257a1.333,1.333,0,1,0,2.615-.523Z" transform="translate(-0.003 -345.6)"/>
        <path id="Path_244" data-name="Path 244" class="cls-1" d="M201.6,296.122a3.363,3.363,0,0,1-2.807-1.931,1.334,1.334,0,1,0-2.385,1.193,6.072,6.072,0,0,0,5.192,3.4,1.333,1.333,0,0,0,0-2.667Z" transform="translate(-165.604 -247.602)"/>
      </g>
    </g>
  </g>
</svg>
