<svg xmlns="http://www.w3.org/2000/svg" viewBox="18105 1169 80 64" width="80px" height="64px">
  <defs>
    <style>
      .cls-1 {
        fill: red;
      }
    </style>
  </defs>
  <g id="tractor" transform="translate(18105 1117.8)">
    <g id="Group_88" data-name="Group 88" transform="translate(0 51.2)">
      <g id="Group_87" data-name="Group 87">
        <path id="Path_264" data-name="Path 264" class="cls-1" d="M185.336,443.734H172a1.333,1.333,0,1,0,0,2.667h13.333a1.333,1.333,0,1,0,0-2.667Z" transform="translate(-144.002 -382.401)"/>
        <path id="Path_265" data-name="Path 265" class="cls-1" d="M46.4,253.6a14.667,14.667,0,1,0-14.667,14.667A14.684,14.684,0,0,0,46.4,253.6Zm-26.667,0a12,12,0,1,1,12,12A12.014,12.014,0,0,1,19.734,253.6Z" transform="translate(-14.4 -209.601)"/>
        <path id="Path_266" data-name="Path 266" class="cls-1" d="M20,443.734H1.335a1.333,1.333,0,0,0,0,2.667H20a1.333,1.333,0,1,0,0-2.667Z" transform="translate(-0.002 -382.401)"/>
        <path id="Path_267" data-name="Path 267" class="cls-1" d="M105.288,325.6a1.334,1.334,0,0,0-1.333-1.333h-.015a1.333,1.333,0,1,0,1.348,1.333Z" transform="translate(-86.581 -281.601)"/>
        <path id="Path_268" data-name="Path 268" class="cls-1" d="M81.6,296.8a6.667,6.667,0,1,0-6.667,6.667A6.674,6.674,0,0,0,81.6,296.8Zm-10.667,0a4,4,0,1,1,4,4A4,4,0,0,1,70.934,296.8Z" transform="translate(-57.6 -252.801)"/>
        <path id="Path_269" data-name="Path 269" class="cls-1" d="M367.735,325.868a9.333,9.333,0,1,0-9.333-9.333A9.344,9.344,0,0,0,367.735,325.868Zm0-16a6.667,6.667,0,1,1-6.667,6.667A6.674,6.674,0,0,1,367.735,309.868Z" transform="translate(-302.402 -267.201)"/>
        <path id="Path_270" data-name="Path 270" class="cls-1" d="M396.535,349.334a4,4,0,1,0-4-4A4,4,0,0,0,396.535,349.334Zm0-5.333a1.333,1.333,0,1,1-1.333,1.333A1.335,1.335,0,0,1,396.535,344Z" transform="translate(-331.202 -296.001)"/>
        <path id="Path_271" data-name="Path 271" class="cls-1" d="M145.333,75.2h-4V68.533a1.333,1.333,0,0,0-2.667,0V75.2H124.961l-7.7-23.088A1.331,1.331,0,0,0,116,51.2H89.333a1.333,1.333,0,0,0-1.32,1.144L85.347,71.011a1.334,1.334,0,0,0,2.64.379l2.5-17.523h5.773l5.1,22.956a1.336,1.336,0,0,0,1.3,1.044h42.667a3.639,3.639,0,0,1,3.809,2.667H137.333a1.333,1.333,0,1,0,0,2.667h12v2.667h-12a1.333,1.333,0,1,0,0,2.667h12v12a1.333,1.333,0,0,0,2.667,0V81.867A6.378,6.378,0,0,0,145.333,75.2Zm-28.509,0,1.7-3.4a1.333,1.333,0,1,0-2.384-1.192l-2.3,4.6H103.736L99,53.867h16.043L122.151,75.2h-5.327Z" transform="translate(-72 -51.2)"/>
        <path id="Path_272" data-name="Path 272" class="cls-1" d="M381.069,443.734H359.735a1.333,1.333,0,1,0,0,2.667h21.333a1.333,1.333,0,1,0,0-2.667Z" transform="translate(-302.402 -382.401)"/>
        <path id="Path_273" data-name="Path 273" class="cls-1" d="M311.2,443.734h-2.667a1.333,1.333,0,1,0,0,2.667H311.2a1.333,1.333,0,1,0,0-2.667Z" transform="translate(-259.201 -382.401)"/>
        <path id="Path_274" data-name="Path 274" class="cls-1" d="M52,210.133a1.333,1.333,0,0,0-1.333,1.333V228.8H37.334v-4A20,20,0,0,0,.192,214.492a1.333,1.333,0,1,0,2.283,1.377A17.333,17.333,0,0,1,34.667,224.8v5.333A1.333,1.333,0,0,0,36,231.467H52a1.333,1.333,0,0,0,1.333-1.333V211.467A1.333,1.333,0,0,0,52,210.133Z" transform="translate(0 -180.8)"/>
      </g>
    </g>
  </g>
</svg>
