<svg xmlns="http://www.w3.org/2000/svg" viewBox="18891 859 80 79.994">
  <defs>
    <style>
      .cls-1 {
        fill: red;
      }
    </style>
  </defs>
  <g id="wallet" transform="translate(18891 858.98)">
    <g id="Group_86" data-name="Group 86" transform="translate(0 0.02)">
      <g id="Group_85" data-name="Group 85">
        <path id="Path_245" data-name="Path 245" class="cls-1" d="M52.533,463.448H55.2a1.333,1.333,0,1,0,0-2.667H52.533a1.333,1.333,0,1,0,0,2.667Z" transform="translate(-43.2 -388.787)"/>
        <path id="Path_246" data-name="Path 246" class="cls-1" d="M154.933,463.448H157.6a1.333,1.333,0,0,0,0-2.667h-2.667a1.333,1.333,0,0,0,0,2.667Z" transform="translate(-129.6 -388.787)"/>
        <path id="Path_247" data-name="Path 247" class="cls-1" d="M154.933,156.248H157.6a1.333,1.333,0,0,0,0-2.667h-2.667a1.333,1.333,0,1,0,0,2.667Z" transform="translate(-129.6 -129.587)"/>
        <path id="Path_248" data-name="Path 248" class="cls-1" d="M206.133,463.448H208.8a1.333,1.333,0,0,0,0-2.667h-2.667a1.333,1.333,0,0,0,0,2.667Z" transform="translate(-172.8 -388.787)"/>
        <path id="Path_249" data-name="Path 249" class="cls-1" d="M103.733,156.248H106.4a1.333,1.333,0,1,0,0-2.667h-2.667a1.333,1.333,0,0,0,0,2.667Z" transform="translate(-86.4 -129.587)"/>
        <path id="Path_250" data-name="Path 250" class="cls-1" d="M52.533,156.248H55.2a1.333,1.333,0,0,0,0-2.667H52.533a1.333,1.333,0,1,0,0,2.667Z" transform="translate(-43.2 -129.587)"/>
        <path id="Path_251" data-name="Path 251" class="cls-1" d="M76,58.68a1.334,1.334,0,0,0-1.333,1.333V73.347a4,4,0,0,1-4,4h-64a4,4,0,0,1-4-4V20.014c0-2.425,2.255-4.144,4.383-4.723L47.165,3.251c.807-.325,3.436-1.035,4.887-.053.851.575,1.281,1.747,1.281,3.483A1.333,1.333,0,1,0,56,6.68C56,4,55.173,2.088,53.544.988,50.676-.949,46.621.6,46.284.736L6.317,12.727C3.172,13.582,0,16.167,0,20.014V73.347a6.674,6.674,0,0,0,6.667,6.667h64a6.674,6.674,0,0,0,6.667-6.667V60.014A1.334,1.334,0,0,0,76,58.68Z" transform="translate(0 -0.02)"/>
        <path id="Path_252" data-name="Path 252" class="cls-1" d="M206.133,156.248H208.8a1.333,1.333,0,1,0,0-2.667h-2.667a1.333,1.333,0,0,0,0,2.667Z" transform="translate(-172.8 -129.587)"/>
        <path id="Path_253" data-name="Path 253" class="cls-1" d="M103.733,463.448H106.4a1.333,1.333,0,0,0,0-2.667h-2.667a1.333,1.333,0,0,0,0,2.667Z" transform="translate(-86.4 -388.787)"/>
        <path id="Path_254" data-name="Path 254" class="cls-1" d="M106.131,85.422V68.088a6.674,6.674,0,0,0-6.667-6.667H49.59L91.74,53.393a3.43,3.43,0,0,1,2.561.545c.772.631,1.163,1.8,1.163,3.483a1.333,1.333,0,0,0,2.667,0c0-2.537-.731-4.412-2.171-5.572a6.125,6.125,0,0,0-4.745-1.071l-56,10.667a1.333,1.333,0,0,0,.249,2.643h64a4,4,0,0,1,4,4V85.421H76.8a2.669,2.669,0,0,0-2.667,2.667v8A2.669,2.669,0,0,0,76.8,98.755h29.333a2.669,2.669,0,0,0,2.667-2.667v-8A2.669,2.669,0,0,0,106.131,85.422ZM76.8,96.088v-8h29.333v8Z" transform="translate(-28.798 -42.761)"/>
        <path id="Path_255" data-name="Path 255" class="cls-1" d="M362.4,156.248a1.333,1.333,0,1,0,0-2.667h-2.667a1.333,1.333,0,0,0,0,2.667Z" transform="translate(-302.4 -129.587)"/>
        <path id="Path_256" data-name="Path 256" class="cls-1" d="M311.2,156.248a1.333,1.333,0,0,0,0-2.667h-2.667a1.333,1.333,0,1,0,0,2.667Z" transform="translate(-259.2 -129.587)"/>
        <path id="Path_257" data-name="Path 257" class="cls-1" d="M413.6,156.248a1.333,1.333,0,0,0,0-2.667h-2.667a1.333,1.333,0,1,0,0,2.667Z" transform="translate(-345.6 -129.587)"/>
        <path id="Path_258" data-name="Path 258" class="cls-1" d="M325.82,307.18h-.013a1.34,1.34,0,1,0,.013,0Z" transform="translate(-273.78 -259.186)"/>
        <path id="Path_259" data-name="Path 259" class="cls-1" d="M311.2,463.448a1.333,1.333,0,0,0,0-2.667h-2.667a1.333,1.333,0,0,0,0,2.667Z" transform="translate(-259.2 -388.787)"/>
        <path id="Path_260" data-name="Path 260" class="cls-1" d="M413.6,463.448a1.333,1.333,0,0,0,0-2.667h-2.667a1.333,1.333,0,0,0,0,2.667Z" transform="translate(-345.6 -388.787)"/>
        <path id="Path_261" data-name="Path 261" class="cls-1" d="M257.333,156.248H260a1.333,1.333,0,1,0,0-2.667h-2.667a1.333,1.333,0,0,0,0,2.667Z" transform="translate(-216 -129.587)"/>
        <path id="Path_262" data-name="Path 262" class="cls-1" d="M257.333,463.448H260a1.333,1.333,0,1,0,0-2.667h-2.667a1.333,1.333,0,1,0,0,2.667Z" transform="translate(-216 -388.787)"/>
        <path id="Path_263" data-name="Path 263" class="cls-1" d="M362.4,463.448a1.333,1.333,0,0,0,0-2.667h-2.667a1.333,1.333,0,1,0,0,2.667Z" transform="translate(-302.4 -388.787)"/>
      </g>
    </g>
  </g>
</svg>
